<svg xmlns="http://www.w3.org/2000/svg" xmlns:xlink="http://www.w3.org/1999/xlink" width="500" zoomAndPan="magnify" viewBox="0 0 375 374.999991" height="500" preserveAspectRatio="xMidYMid meet" version="1.0"><defs><g/></defs><g fill="#000000" fill-opacity="1"><g transform="translate(25.061756, 129.997555)"><g><path d="M 75.328125 2.15625 C 50.703125 2.15625 32.582031 -2.910156 20.96875 -13.046875 C 10.6875 -22.023438 5.546875 -34.269531 5.546875 -49.78125 C 5.546875 -65.226562 10.6875 -77.441406 20.96875 -86.421875 C 32.582031 -96.554688 50.703125 -101.625 75.328125 -101.625 C 99.941406 -101.625 118.054688 -96.554688 129.671875 -86.421875 C 139.953125 -77.441406 145.09375 -65.226562 145.09375 -49.78125 C 145.09375 -34.269531 139.953125 -22.023438 129.671875 -13.046875 C 118.054688 -2.910156 99.941406 2.15625 75.328125 2.15625 Z M 75.328125 -24.578125 C 85.410156 -24.578125 92.8125 -27.46875 97.53125 -33.25 C 101.332031 -37.925781 103.234375 -43.4375 103.234375 -49.78125 C 103.234375 -56.113281 101.332031 -61.59375 97.53125 -66.21875 C 92.8125 -72.050781 85.410156 -74.96875 75.328125 -74.96875 C 65.234375 -74.96875 57.800781 -72.050781 53.03125 -66.21875 C 49.238281 -61.59375 47.34375 -56.113281 47.34375 -49.78125 C 47.34375 -43.4375 49.238281 -37.925781 53.03125 -33.25 C 57.800781 -27.46875 65.234375 -24.578125 75.328125 -24.578125 Z M 75.328125 -24.578125 "/></g></g></g><g fill="#000000" fill-opacity="1"><g transform="translate(23.911098, 328.831192)"><g><path d="M 147.09375 0 L 107.59375 0 C 105.789062 -2.5 104.519531 -5.691406 103.78125 -9.578125 C 103.132812 -12.585938 102.160156 -15.535156 100.859375 -18.421875 C 99.566406 -21.316406 97.332031 -23.722656 94.15625 -25.640625 C 90.988281 -27.566406 86.285156 -28.597656 80.046875 -28.734375 L 52.890625 -28.734375 L 52.890625 0 L 11.109375 0 L 11.109375 -99.625 L 79.0625 -99.625 C 95.3125 -99.625 108.421875 -98.40625 118.390625 -95.96875 C 128.367188 -93.539062 135.644531 -89.722656 140.21875 -84.515625 C 144.800781 -79.304688 147.09375 -72.515625 147.09375 -64.140625 C 147.09375 -57.148438 145.507812 -51.269531 142.34375 -46.5 C 139.175781 -41.738281 134.164062 -37.972656 127.3125 -35.203125 C 133.9375 -32.460938 138.226562 -29.179688 140.1875 -25.359375 C 142.15625 -21.546875 143.375 -17.347656 143.84375 -12.765625 C 144.300781 -8.703125 145.382812 -4.445312 147.09375 0 Z M 52.890625 -53.3125 L 76.78125 -53.390625 C 83.445312 -53.390625 88.695312 -53.6875 92.53125 -54.28125 C 96.375 -54.882812 99.207031 -55.707031 101.03125 -56.75 C 102.863281 -57.789062 104.035156 -58.945312 104.546875 -60.21875 C 105.054688 -61.488281 105.3125 -62.796875 105.3125 -64.140625 C 105.3125 -65.484375 105.054688 -66.800781 104.546875 -68.09375 C 104.035156 -69.394531 102.863281 -70.566406 101.03125 -71.609375 C 99.207031 -72.648438 96.375 -73.46875 92.53125 -74.0625 C 88.695312 -74.664062 83.445312 -74.96875 76.78125 -74.96875 L 52.890625 -74.96875 Z M 52.890625 -53.3125 "/></g></g></g><g fill="#000000" fill-opacity="1"><g transform="translate(65.615084, 180.730125)"><g><path d="M 6.679688 0.460938 C 10.632812 0.460938 13.300781 -1.363281 13.300781 -4.613281 C 13.300781 -7.199219 11.835938 -8.585938 8.425781 -9.207031 L 7.039062 -9.449219 C 5.898438 -9.648438 5.476562 -9.929688 5.476562 -10.429688 C 5.476562 -10.953125 5.898438 -11.292969 6.539062 -11.292969 C 7.28125 -11.292969 7.863281 -10.730469 7.921875 -9.789062 L 12.476562 -10.671875 C 12.257812 -13.339844 9.808594 -14.902344 6.679688 -14.902344 C 2.988281 -14.902344 0.5625 -13.097656 0.5625 -10.03125 C 0.5625 -7.441406 2.027344 -6.058594 5.457031 -5.394531 L 6.859375 -5.136719 C 7.964844 -4.933594 8.40625 -4.632812 8.40625 -4.113281 C 8.40625 -3.550781 7.804688 -3.210938 6.941406 -3.210938 C 5.898438 -3.210938 5.136719 -3.8125 5.015625 -4.972656 L 0.339844 -4.230469 C 0.582031 -1.082031 3.109375 0.460938 6.679688 0.460938 Z M 6.679688 0.460938 "/></g></g></g><g fill="#000000" fill-opacity="1"><g transform="translate(79.11469, 180.730125)"><g><path d="M 8.222656 0.460938 C 12.957031 0.460938 16.046875 -2.585938 16.046875 -7.222656 C 16.046875 -11.875 12.957031 -14.902344 8.222656 -14.902344 C 3.511719 -14.902344 0.402344 -11.875 0.402344 -7.222656 C 0.402344 -2.585938 3.511719 0.460938 8.222656 0.460938 Z M 8.222656 -3.972656 C 6.621094 -3.972656 5.617188 -5.214844 5.617188 -7.222656 C 5.617188 -9.226562 6.621094 -10.492188 8.222656 -10.492188 C 9.828125 -10.492188 10.832031 -9.226562 10.832031 -7.222656 C 10.832031 -5.214844 9.828125 -3.972656 8.222656 -3.972656 Z M 8.222656 -3.972656 "/></g></g></g><g fill="#000000" fill-opacity="1"><g transform="translate(95.562947, 180.730125)"><g><path d="M 0.800781 0 L 6.019531 0 L 6.019531 -4.414062 L 9.425781 -4.414062 L 9.425781 -8.222656 L 6.019531 -8.222656 L 6.019531 -10.03125 L 10.632812 -10.03125 L 10.632812 -14.441406 L 0.800781 -14.441406 Z M 0.800781 0 "/></g></g></g><g fill="#000000" fill-opacity="1"><g transform="translate(106.49502, 180.730125)"><g><path d="M 3.8125 0 L 9.027344 0 L 9.027344 -10.03125 L 12.4375 -10.03125 L 12.4375 -14.441406 L 0.402344 -14.441406 L 0.402344 -10.03125 L 3.8125 -10.03125 Z M 3.8125 0 "/></g></g></g><g fill="#000000" fill-opacity="1"><g transform="translate(119.332685, 180.730125)"><g><path d="M 3.75 0 L 10.070312 0 L 12.054688 -9.207031 L 12.09375 -9.207031 L 14.082031 0 L 20.398438 0 L 24.128906 -14.441406 L 18.894531 -14.441406 L 17.230469 -5.113281 L 17.191406 -5.113281 L 15.085938 -14.441406 L 9.066406 -14.441406 L 6.980469 -5.113281 L 6.941406 -5.113281 L 5.253906 -14.441406 L 0.0195312 -14.441406 Z M 3.75 0 "/></g></g></g><g fill="#000000" fill-opacity="1"><g transform="translate(143.463474, 180.730125)"><g><path d="M -0.0195312 0 L 5.214844 0 L 5.738281 -2.207031 L 9.289062 -2.207031 L 9.75 0 L 15.085938 0 L 10.75 -14.441406 L 4.332031 -14.441406 Z M 6.359375 -5.617188 L 7.523438 -10.449219 L 7.5625 -10.449219 L 8.664062 -5.617188 Z M 6.359375 -5.617188 "/></g></g></g><g fill="#000000" fill-opacity="1"><g transform="translate(158.547735, 180.730125)"><g><path d="M 11.253906 0.300781 C 12.476562 0.300781 13.800781 -0.101562 14.644531 -0.722656 L 14.019531 -2.988281 C 13.820312 -2.886719 13.558594 -2.789062 13.320312 -2.789062 C 13.019531 -2.789062 12.777344 -3.027344 12.695312 -3.429688 L 12.535156 -4.230469 C 12.355469 -5.015625 12.074219 -5.554688 11.292969 -5.796875 L 11.292969 -5.816406 C 12.9375 -6.417969 13.839844 -7.78125 13.839844 -9.609375 C 13.839844 -12.71875 11.675781 -14.441406 7.742188 -14.441406 L 0.800781 -14.441406 L 0.800781 0 L 6.019531 0 L 6.019531 -4.8125 L 6.597656 -4.8125 C 7.121094 -4.8125 7.421875 -4.414062 7.542969 -3.929688 L 7.84375 -2.46875 C 8.222656 -0.78125 9.488281 0.300781 11.253906 0.300781 Z M 6.019531 -8.023438 L 6.019531 -10.832031 L 7.199219 -10.832031 C 8.125 -10.832031 8.625 -10.332031 8.625 -9.425781 C 8.625 -8.523438 8.125 -8.023438 7.199219 -8.023438 Z M 6.019531 -8.023438 "/></g></g></g><g fill="#000000" fill-opacity="1"><g transform="translate(173.290993, 180.730125)"><g><path d="M 0.800781 0 L 10.632812 0 L 10.632812 -4.011719 L 5.816406 -4.011719 L 5.816406 -5.617188 L 9.628906 -5.617188 L 9.628906 -9.027344 L 5.816406 -9.027344 L 5.816406 -10.429688 L 10.429688 -10.429688 L 10.429688 -14.441406 L 0.800781 -14.441406 Z M 0.800781 0 "/></g></g></g><g fill="#000000" fill-opacity="1"><g transform="translate(184.263734, 180.730125)"><g/></g></g><g fill="#000000" fill-opacity="1"><g transform="translate(187.272567, 180.730125)"><g/></g></g><g fill="#000000" fill-opacity="1"><g transform="translate(190.27746, 180.730125)"><g><path d="M 0.800781 0 L 7.0625 0 C 11.933594 0 14.644531 -2.585938 14.644531 -7.222656 C 14.644531 -11.855469 11.953125 -14.441406 7.121094 -14.441406 L 0.800781 -14.441406 Z M 5.816406 -4.011719 L 5.816406 -10.429688 L 7.019531 -10.429688 C 8.566406 -10.429688 9.425781 -9.289062 9.425781 -7.222656 C 9.425781 -5.15625 8.566406 -4.011719 7.019531 -4.011719 Z M 5.816406 -4.011719 "/></g></g></g><g fill="#000000" fill-opacity="1"><g transform="translate(205.321606, 180.730125)"><g><path d="M 0.800781 0 L 10.632812 0 L 10.632812 -4.011719 L 5.816406 -4.011719 L 5.816406 -5.617188 L 9.628906 -5.617188 L 9.628906 -9.027344 L 5.816406 -9.027344 L 5.816406 -10.429688 L 10.429688 -10.429688 L 10.429688 -14.441406 L 0.800781 -14.441406 Z M 0.800781 0 "/></g></g></g><g fill="#000000" fill-opacity="1"><g transform="translate(216.31386, 180.730125)"><g><path d="M 4.394531 0 L 10.8125 0 L 15.203125 -14.441406 L 9.808594 -14.441406 L 7.621094 -4.535156 L 7.582031 -4.535156 L 5.394531 -14.441406 L 0 -14.441406 Z M 4.394531 0 "/></g></g></g><g fill="#000000" fill-opacity="1"><g transform="translate(231.518465, 180.730125)"><g><path d="M 0.800781 0 L 10.632812 0 L 10.632812 -4.011719 L 5.816406 -4.011719 L 5.816406 -5.617188 L 9.628906 -5.617188 L 9.628906 -9.027344 L 5.816406 -9.027344 L 5.816406 -10.429688 L 10.429688 -10.429688 L 10.429688 -14.441406 L 0.800781 -14.441406 Z M 0.800781 0 "/></g></g></g><g fill="#000000" fill-opacity="1"><g transform="translate(242.51072, 180.730125)"><g><path d="M 0.800781 0 L 10.230469 0 L 10.230469 -4.414062 L 6.019531 -4.414062 L 6.019531 -14.441406 L 0.800781 -14.441406 Z M 0.800781 0 "/></g></g></g><g fill="#000000" fill-opacity="1"><g transform="translate(253.141903, 180.730125)"><g><path d="M 8.222656 0.460938 C 12.957031 0.460938 16.046875 -2.585938 16.046875 -7.222656 C 16.046875 -11.875 12.957031 -14.902344 8.222656 -14.902344 C 3.511719 -14.902344 0.402344 -11.875 0.402344 -7.222656 C 0.402344 -2.585938 3.511719 0.460938 8.222656 0.460938 Z M 8.222656 -3.972656 C 6.621094 -3.972656 5.617188 -5.214844 5.617188 -7.222656 C 5.617188 -9.226562 6.621094 -10.492188 8.222656 -10.492188 C 9.828125 -10.492188 10.832031 -9.226562 10.832031 -7.222656 C 10.832031 -5.214844 9.828125 -3.972656 8.222656 -3.972656 Z M 8.222656 -3.972656 "/></g></g></g><g fill="#000000" fill-opacity="1"><g transform="translate(269.59016, 180.730125)"><g><path d="M 0.800781 0 L 6.019531 0 L 6.019531 -4.113281 L 8.203125 -4.113281 C 11.675781 -4.113281 13.742188 -6.039062 13.742188 -9.289062 C 13.742188 -12.515625 11.613281 -14.441406 8.003906 -14.441406 L 0.800781 -14.441406 Z M 6.039062 -7.722656 L 6.019531 -10.832031 L 7.019531 -10.832031 C 8.003906 -10.832031 8.523438 -10.269531 8.523438 -9.289062 C 8.523438 -8.285156 7.984375 -7.722656 7.019531 -7.722656 Z M 6.039062 -7.722656 "/></g></g></g><g fill="#000000" fill-opacity="1"><g transform="translate(283.631362, 180.730125)"><g><path d="M 0.800781 0 L 10.632812 0 L 10.632812 -4.011719 L 5.816406 -4.011719 L 5.816406 -5.617188 L 9.628906 -5.617188 L 9.628906 -9.027344 L 5.816406 -9.027344 L 5.816406 -10.429688 L 10.429688 -10.429688 L 10.429688 -14.441406 L 0.800781 -14.441406 Z M 0.800781 0 "/></g></g></g><g fill="#000000" fill-opacity="1"><g transform="translate(294.623616, 180.730125)"><g><path d="M 11.253906 0.300781 C 12.476562 0.300781 13.800781 -0.101562 14.644531 -0.722656 L 14.019531 -2.988281 C 13.820312 -2.886719 13.558594 -2.789062 13.320312 -2.789062 C 13.019531 -2.789062 12.777344 -3.027344 12.695312 -3.429688 L 12.535156 -4.230469 C 12.355469 -5.015625 12.074219 -5.554688 11.292969 -5.796875 L 11.292969 -5.816406 C 12.9375 -6.417969 13.839844 -7.78125 13.839844 -9.609375 C 13.839844 -12.71875 11.675781 -14.441406 7.742188 -14.441406 L 0.800781 -14.441406 L 0.800781 0 L 6.019531 0 L 6.019531 -4.8125 L 6.597656 -4.8125 C 7.121094 -4.8125 7.421875 -4.414062 7.542969 -3.929688 L 7.84375 -2.46875 C 8.222656 -0.78125 9.488281 0.300781 11.253906 0.300781 Z M 6.019531 -8.023438 L 6.019531 -10.832031 L 7.199219 -10.832031 C 8.125 -10.832031 8.625 -10.332031 8.625 -9.425781 C 8.625 -8.523438 8.125 -8.023438 7.199219 -8.023438 Z M 6.019531 -8.023438 "/></g></g></g></svg>